<svg width="120" height="38" viewBox="0 0 120 38" xmlns="http://www.w3.org/2000/svg"><title>LOGO</title><g fill="#FA507B" fill-rule="evenodd"><path d="M58.443 14.045v11.477c0 .866-.711 1.578-1.576 1.578a1.568 1.568 0 0 1-1.575-1.578V14.045H50.92a1.476 1.476 0 0 1-1.474-1.477c0-.84.635-1.501 1.474-1.501h11.893c.788 0 1.5.662 1.5 1.501 0 .815-.687 1.477-1.5 1.477h-4.37zm12.029 4.937c0 2.927 1.982 5.319 4.956 5.319 2.973 0 4.955-2.392 4.955-5.32 0-2.926-1.982-5.267-4.955-5.267-2.974 0-4.956 2.341-4.956 5.268m-3.177 0c0-4.556 3.558-8.195 8.133-8.195 4.574 0 8.106 3.64 8.106 8.195 0 4.58-3.532 8.246-8.106 8.246-4.575 0-8.133-3.665-8.133-8.246M91.593 20v3.995h4.498c1.55 0 2.185-1.068 2.185-2.036 0-.941-.635-1.96-2.185-1.96h-4.498zm0-6.006v3.104h4.167c1.144 0 1.678-.763 1.678-1.577 0-.84-.534-1.527-1.678-1.527h-4.167zm-1.576 12.928c-.89 0-1.576-.712-1.576-1.603V12.645c0-.891.687-1.578 1.576-1.578h5.49c3.252 0 5.107 1.578 5.107 3.843 0 1.603-.838 2.901-2.109 3.537 1.931.586 2.923 2.189 2.923 3.97 0 2.52-2.11 4.505-5.77 4.505h-5.64zm24.532-6.897v5.497a1.59 1.59 0 0 1-1.601 1.578c-.864 0-1.55-.738-1.55-1.578v-5.497l-5.134-6.871c-.203-.23-.305-.56-.305-.866 0-.814.661-1.45 1.449-1.45.457 0 .89.229 1.143.585l4.397 6.032 4.396-6.032c.28-.356.686-.585 1.144-.585.813 0 1.448.661 1.448 1.45 0 .331-.101.637-.28.866l-5.107 6.871zm-88.167-4.002h-.002l-8.407-.004c.94-.925 1.526-2.159 2.062-3.291.76-1.603 1.416-2.988 2.814-3.439.268-.086.558-.135.862-.144a.701.701 0 0 0 .112-.013l2.562.004a3.41 3.41 0 0 1 2.427 1.016 3.44 3.44 0 0 1-2.43 5.87v.001zm-3.531 11.18a3.45 3.45 0 0 1-3.44 3.447h-.002a3.448 3.448 0 0 1-3.436-3.45l.006-9.774 6.879.006-.007 9.772zM14.94 16.019l-3.037-.001a3.409 3.409 0 0 1-2.428-1.011 3.435 3.435 0 0 1-1.01-2.439c.002-1.898 1.544-3.453 3.44-3.453h.002l8.687.013c-.79.831-1.31 1.928-1.818 3.002-.752 1.586-1.462 3.084-2.96 3.67-.277.108-.572.18-.876.219zM32.378 5.58C28.8 1.99 24.04 0 18.974 0h-.013C13.9 0 9.144 1.98 5.563 5.562A18.89 18.89 0 0 0 0 18.989a18.888 18.888 0 0 0 5.544 13.436C9.124 36.014 13.884 38 18.948 38h.014c5.06 0 9.817-1.973 13.398-5.554a18.88 18.88 0 0 0 5.563-13.425 18.9 18.9 0 0 0-5.545-13.44z"/><path d="M26.2 11.176a1.409 1.409 0 1 0 0 2.818 1.409 1.409 0 0 0 0-2.818"/></g></svg>